<svg xmlns="http://www.w3.org/2000/svg" width="1224" height="216" viewBox="0 0 1224 216"><g fill="#58595B"><path d="M331.698 2.89h46.437c12.587 0 23.984.51 31.3 2.893 14.797 4.763 20.75 16.5 20.75 27.896 0 6.463-1.7 10.375-2.21 11.565-5.443 12.248-17.01 14.63-23.474 15.99 7.315 1.19 17.01 2.722 23.645 10.206 4.252 4.594 6.634 11.23 6.634 18.032 0 9.355-4.935 22.454-19.903 29.086-9.016 3.914-18.71 4.424-32.49 4.424h-50.69V2.892zm28.576 22.454v25.004h22.624c6.804-.17 17.86-.51 17.86-12.927 0-11.566-10.036-12.076-15.82-12.076h-24.664zm0 46.778v29.087h20.923c10.036-.172 23.134-.512 23.134-14.29 0-14.458-11.906-14.628-18.03-14.798h-26.026zM512.755 2.89l44.227 120.092h-31.98l-5.952-19.222h-44.227l-5.953 19.222h-31.98l44.567-120.09h31.298zm-16.16 28.578c-1.53 6.123-3.23 12.417-4.933 18.54-2.55 9.016-7.145 23.134-9.866 32.15h30.448l-15.65-50.69zM580.116 86.92c3.06 3.402 5.613 6.124 11.566 9.356a49.418 49.418 0 0 0 23.134 5.783c11.907 0 22.113-5.614 22.113-13.95 0-9.525-12.08-11.056-20.923-12.246-6.634-.85-13.267-1.702-19.73-3.062-7.315-1.532-32.32-6.805-32.32-32.66C563.957 9.185 591.512 0 612.265 0c27.726 0 42.695 13.437 53.072 22.792l-22.113 15.82c-3.743-3.743-7.145-6.974-11.907-9.696-4.253-2.38-11.907-5.273-19.56-5.273-11.91 0-17.862 6.804-17.862 12.588 0 9.187 10.207 10.547 15.31 11.227 12.756 1.53 29.937 4.763 36.74 7.144 13.78 5.104 20.752 15.82 20.752 29.43 0 8.675-3.23 18.2-9.524 25.515-10.886 12.586-28.237 16.158-45.077 16.158-33.85 0-47.288-15.648-54.772-24.324l22.792-14.46zM680.985 2.89h88.792v23.304h-58.854v21.773h54.942V70.76h-54.942V99.34h64.127v23.645h-94.066V2.89zM794.273 2.89h46.438c12.588 0 23.984.51 31.3 2.893 14.798 4.763 20.75 16.5 20.75 27.896 0 6.463-1.7 10.375-2.21 11.565-5.443 12.248-17.01 14.63-23.473 15.99 7.313 1.19 17.01 2.722 23.644 10.206 4.253 4.594 6.635 11.23 6.635 18.032 0 9.355-4.934 22.454-19.902 29.086-9.015 3.914-18.71 4.424-32.49 4.424h-50.69V2.892zm28.58 22.454v25.004h22.622c6.804-.17 17.86-.51 17.86-12.927 0-11.566-10.036-12.076-15.82-12.076h-24.663zm0 46.778v29.087h20.92c10.036-.172 23.134-.512 23.134-14.29 0-14.458-11.906-14.628-18.03-14.798h-26.025zM976.433 2.89l44.226 120.092h-31.98l-5.953-19.222H938.5l-5.954 19.222h-31.98l44.567-120.09h31.3zm-16.16 28.578c-1.532 6.123-3.233 12.417-4.934 18.54-2.553 9.016-7.146 23.134-9.867 32.15h30.448l-15.648-50.69zM1032.736 2.72h29.938v94.917h46.947v25.346h-76.884V2.72zM1124.932 2.72h29.938v94.917h46.947v25.346h-76.885V2.72z"/><g><path d="M331.697 142.874h48.546c6.268.096 13.862.192 20.027 5.76 2.333 2.026 6.376 6.68 6.376 15.273 0 17.093-14.464 19.42-19.214 20.227l26.295 30.155H400.48l-24.186-28.53h-34.498v28.53h-10.1v-71.416zm9.998 8.594v25.892h35.317c5.563 0 12.632-.096 16.695-5.46 1.814-2.315 2.423-5.063 2.423-7.595 0-2.724-.705-5.472-2.127-7.57-3.237-5.17-8.396-5.17-13.055-5.267h-39.253zM422.28 142.873h65.953v8.8h-55.845v21.347h54.326v8.377h-54.326v24.093h58.376v8.8H422.28v-71.417zM502.438 142.873h63.432v8.594h-53.512v22.963h51.487v8.498h-51.487v31.36h-9.92v-71.415zM578.166 142.873h65.954v8.8h-55.835v21.347h54.305v8.377h-54.305v24.093h58.36v8.8h-68.48v-71.417zM658.23 142.873h48.558c6.273.096 13.85.193 20.027 5.762 2.32 2.025 6.37 6.678 6.37 15.27 0 17.094-14.463 19.42-19.22 20.228l26.308 30.155h-13.26l-24.172-28.527h-34.485v28.528H658.23v-71.415zm10.022 8.594v25.892h35.3c5.56 0 12.638-.097 16.687-5.46 1.82-2.315 2.427-5.063 2.427-7.595 0-2.725-.71-5.473-2.126-7.57-3.23-5.17-8.39-5.17-13.035-5.268h-39.253zM748.812 142.873h65.958v8.8h-55.845v21.347h54.326v8.377h-54.325v24.093H817.3v8.8h-68.488v-71.417zM839.312 142.873l48.13 51.07c3.454 3.653 4.165 4.46 7.588 8.713-.506-5.06-.506-5.976-.603-10.52v-49.264h9.715v71.415h-9.92l-50.577-53.515c-2.622-2.93-3.43-3.954-5.563-6.57.41 4.955.507 6.365.507 12.332v47.753h-9.705v-71.415h10.427zM1002.713 194.668c-2.72 4.846-5.557 9.688-12.64 14.16-8.8 5.557-20.13 7.172-28.735 7.172-29.03 0-43.387-16.68-43.387-37.93 0-16.888 8.402-24.674 13.254-28.327 3.037-2.422 11.535-9.004 29.84-9.004 5.158 0 17.61.71 27.216 6.677 7.576 4.75 11.126 10.716 13.042 13.958l-10.927 2.447c-1.614-2.856-3.338-5.883-7.78-8.812-4.357-2.845-12.042-5.363-21.143-5.363-17 0-32.773 7.99-32.773 28.108 0 7.076 2.018 14.38 7.376 20.348 4.852 4.963 13.156 9.098 25.993 9.098 11.028.085 18.417-2.735 22.763-6.168 3.852-2.845 6.178-6.473 7.19-8.606l10.71 2.242zM1014.293 142.873h65.952v8.8H1024.4v21.347h54.326v8.377H1024.4v24.093h58.376v8.8h-68.483v-71.417z"/></g></g><path fill="#FFF" d="M300.136 2.893v211.37S256.38 184.76 191.55 184.76c-52.15 0-162.05 8.812-191.552-134.628 0 0 19.83 17.454 60.805 17.454 66.175 0 87.65-64.693 239.33-64.693z"/><path fill="#CF2036" d="M218.32 30.966c3.043-.24 8.263-.663 12.747-1.024-2.917 3.99-5.454 8.22-7.756 12.584l-13.03 1.06-4.133-11.173c2.75-3.58 5.713-7.016 8.932-10.21 1.22 3.303 2.444 6.617 3.24 8.763zm-1.808 133.748l13.434-1.29 2.555-14.174c-3.573-4.617-6.7-9.62-9.43-14.887-.827 4.544-2.46 13.645-3.262 18.057-3.152.3-8.667.832-13.277 1.277a99.52 99.52 0 0 0 9.982 11.017zM215.325 62.8a99.586 99.586 0 0 1 5.135-14.488c-4.64 1.65-11.336 4.038-14.893 5.304-1.657-2.35-4.445-6.28-6.946-9.8a99.827 99.827 0 0 0-5.91 12.27l8.352 11.802 14.263-5.088zm-1.88 80.53l6.923-14.693c-2.272-5.17-4.152-10.56-5.544-16.2-1.71 3.63-6.226 13.212-8.323 17.647-3.44-.578-9.717-1.627-14.497-2.436a97.827 97.827 0 0 0 6.003 13.115l15.438 2.568zm-27.378-59.858l12.39 10.27 13.48-9.293c.223-5.425.982-10.717 2.06-15.924a11643 11643 0 0 0-14.882 10.27c-2.574-2.122-7.13-5.918-10.788-8.944a97.85 97.85 0 0 0-2.26 13.62zm114.068-7V2.892c-28.272 0-52.018 2.25-72.375 5.907 33.836 7.92 61.916 33.346 72.375 67.672zm-86.51 30.3c-.157-.832-.398-1.65-.53-2.495-.754-4.713-1.043-9.39-1.127-14.03-2.586 3.073-9.36 11.077-12.533 14.826-3.224-1.47-9.148-4.17-13.584-6.195.2 3.182.495 6.376 1.014 9.583.24 1.496.584 2.942.886 4.4l14.956 6.812 10.92-12.9zm-106.563 14.416c-4.283-26.847 2.626-52.894 17.276-73.396-20.928 11.055-39.212 19.793-63.533 19.793C19.83 67.585 0 50.132 0 50.132 22.177 157.96 89.787 179.75 144.145 183.924c-19.172-14.916-32.955-36.852-37.083-62.736zm47.78 15.707c1.03-5.015 1.65-10.15 1.893-15.38l-8.83-9.355-13.163 6.883c-.018 4.773-.47 9.45-1.145 14.055 4.104-2.134 9.022-4.7 11.825-6.184 2.242 2.374 6.202 6.557 9.42 9.98zm82.276 17.802c.404 4.906 1.012 12.066 1.326 15.84-2.447.915-6.4 2.397-10.13 3.784a98.033 98.033 0 0 0 13.27 7.775l9.492-3.543-.982-11.74c-4.665-3.652-9.023-7.69-12.976-12.115zm14.6 38.61c30.254 8.714 48.417 20.957 48.417 20.957V134.65c-7.68 25-25.06 46.266-48.416 58.658zM145.49 163.04a97.953 97.953 0 0 0 6.01-13.983l-5.667-10.5-13.86 3.1a98.468 98.468 0 0 1-4.153 13.15c4.237-.953 8.98-2.014 11.807-2.64 1.398 2.59 3.78 6.99 5.864 10.872zm-.994-62.006c2.85 1.736 7.95 4.894 11.987 7.39-.017-.218-.017-.446-.035-.664a100.803 100.803 0 0 0-2.55-14.947l-10.824-6.677-10.95 10.077c.988 4.303 1.802 8.68 2.218 13.188.036.313.018.615.042.93 3.454-3.172 7.715-7.09 10.114-9.296zM129.74 87.546c2.477-3.906 5.455-8.606 7.16-11.283 3.074.917 8.456 2.532 12.91 3.857a98.41 98.41 0 0 0-7.287-14.62l-10.854-3.255-7.5 11.812a98.13 98.13 0 0 1 5.57 13.49z"/></svg>